<?xml version="1.0" encoding="utf-8"?>
<!-- Generator: Adobe Illustrator 23.1.0, SVG Export Plug-In . SVG Version: 6.00 Build 0)  -->
<svg version="1.1" id="Layer_1" xmlns="http://www.w3.org/2000/svg" xmlns:xlink="http://www.w3.org/1999/xlink" x="0px" y="0px"
	 viewBox="0 0 33.08 33.08" style="enable-background:new 0 0 33.08 33.08;" xml:space="preserve">
<style type="text/css">
	.st0{fill:#FFFFFF;}
</style>
<path class="st0" d="M30.99,7.51H2.1c-0.31,0-0.56-0.25-0.56-0.56V4.07c0-0.31,0.25-0.56,0.56-0.56h28.89
	c0.31,0,0.56,0.25,0.56,0.56v2.89C31.54,7.26,31.29,7.51,30.99,7.51z"/>
<path class="st0" d="M30.99,18.54H2.1c-0.31,0-0.56-0.25-0.56-0.56v-2.89c0-0.31,0.25-0.56,0.56-0.56h28.89
	c0.31,0,0.56,0.25,0.56,0.56v2.89C31.54,18.29,31.29,18.54,30.99,18.54z"/>
<path class="st0" d="M30.99,29.57H2.1c-0.31,0-0.56-0.25-0.56-0.56v-2.89c0-0.31,0.25-0.56,0.56-0.56h28.89
	c0.31,0,0.56,0.25,0.56,0.56v2.89C31.54,29.32,31.29,29.57,30.99,29.57z"/>
</svg>
