<?xml version="1.0" encoding="utf-8"?>
<!-- Generator: Adobe Illustrator 23.1.0, SVG Export Plug-In . SVG Version: 6.00 Build 0)  -->
<svg version="1.1" id="Layer_1" xmlns="http://www.w3.org/2000/svg" xmlns:xlink="http://www.w3.org/1999/xlink" x="0px" y="0px"
	 viewBox="0 0 25 25" style="enable-background:new 0 0 25 25;" xml:space="preserve">
<style type="text/css">
	.st0{fill:#1B1B1B;}
</style>
<path class="st0" d="M16.84,12.5l7.15-7.15c0.56-0.56,0.56-1.47,0-2.02l-2.32-2.32c-0.56-0.56-1.47-0.56-2.02,0L12.5,8.16L5.35,1.01
	c-0.56-0.56-1.47-0.56-2.02,0L1.01,3.32c-0.56,0.56-0.56,1.47,0,2.02l7.15,7.15l-7.15,7.15c-0.56,0.56-0.56,1.47,0,2.02l2.32,2.32
	c0.56,0.56,1.47,0.56,2.02,0l7.15-7.15l7.15,7.15c0.56,0.56,1.47,0.56,2.02,0l2.32-2.32c0.56-0.56,0.56-1.47,0-2.02L16.84,12.5z"/>
</svg>
