<?xml version="1.0" encoding="utf-8"?>
<!-- Generator: Adobe Illustrator 23.1.0, SVG Export Plug-In . SVG Version: 6.00 Build 0)  -->
<svg version="1.1" id="Layer_1" xmlns="http://www.w3.org/2000/svg" xmlns:xlink="http://www.w3.org/1999/xlink" x="0px" y="0px"
	 viewBox="0 0 23.91 23.91" style="enable-background:new 0 0 23.91 23.91;" xml:space="preserve">
<style type="text/css">
	.st0{fill:#1B1B1B;}
</style>
<path class="st0" d="M21.59,17.83c1.05-1.72,1.67-3.72,1.67-5.88c0-2.15-0.62-4.16-1.66-5.87c-0.01-0.03-0.01-0.07-0.03-0.1
	c-0.04-0.08-0.1-0.15-0.16-0.21c-2.02-3.08-5.5-5.11-9.45-5.11C8,0.65,4.52,2.7,2.5,5.79C2.44,5.84,2.39,5.9,2.35,5.98
	C2.34,6.01,2.34,6.03,2.33,6.06c-1.06,1.72-1.68,3.73-1.68,5.9c0,2.16,0.62,4.18,1.68,5.9c0.01,0.02,0.01,0.05,0.02,0.07
	c0.03,0.07,0.08,0.13,0.14,0.18c2.02,3.1,5.5,5.15,9.47,5.15c3.99,0,7.49-2.08,9.51-5.21c0.03-0.04,0.08-0.07,0.11-0.12
	C21.58,17.9,21.58,17.87,21.59,17.83z M20.72,16.83c-1.41-0.64-2.84-1.13-4.26-1.48c0.27-1.07,0.44-2.2,0.44-3.39
	c0-1.19-0.17-2.33-0.44-3.4c1.42-0.34,2.84-0.84,4.26-1.48c0.81,1.44,1.27,3.1,1.27,4.87C21.99,13.72,21.53,15.38,20.72,16.83z
	 M9,16.35c1.98-0.34,3.93-0.34,5.91,0c-0.88,2.49-2.26,4.45-2.96,5.34C11.26,20.8,9.88,18.84,9,16.35z M11.96,2.22
	c0.7,0.89,2.08,2.84,2.96,5.34C12.93,7.9,10.98,7.9,9,7.56C9.88,5.07,11.26,3.11,11.96,2.22z M8.19,11.96c0-1.1,0.16-2.16,0.42-3.16
	c1.12,0.2,2.24,0.33,3.34,0.33c1.1,0,2.22-0.12,3.34-0.33c0.26,1,0.42,2.06,0.42,3.16c0,1.1-0.16,2.16-0.42,3.15
	c-2.24-0.4-4.44-0.4-6.68,0C8.36,14.11,8.19,13.05,8.19,11.96z M20.01,5.99c-1.3,0.58-2.61,1.02-3.91,1.33
	c-0.79-2.32-1.97-4.19-2.79-5.3C16.04,2.39,18.43,3.87,20.01,5.99z M10.61,2.02c-0.82,1.12-2.01,2.98-2.79,5.3
	c-1.3-0.31-2.61-0.76-3.91-1.34C5.49,3.87,7.87,2.39,10.61,2.02z M3.19,7.08c1.41,0.64,2.84,1.13,4.25,1.48
	c-0.27,1.07-0.44,2.21-0.44,3.4c0,1.19,0.17,2.33,0.44,3.39c-1.42,0.34-2.84,0.84-4.26,1.48c-0.81-1.44-1.27-3.1-1.27-4.87
	C1.92,10.19,2.39,8.53,3.19,7.08z M3.91,17.92c1.3-0.58,2.61-1.02,3.91-1.34c0.79,2.32,1.97,4.19,2.79,5.3
	C7.87,21.52,5.48,20.04,3.91,17.92z M13.3,21.89c0.82-1.12,2.01-2.99,2.79-5.3c1.3,0.31,2.61,0.76,3.91,1.33
	C18.43,20.04,16.04,21.52,13.3,21.89z"/>
</svg>
