<?xml version="1.0" encoding="utf-8"?>
<!-- Generator: Adobe Illustrator 23.1.0, SVG Export Plug-In . SVG Version: 6.00 Build 0)  -->
<svg version="1.1" id="Layer_1" xmlns="http://www.w3.org/2000/svg" xmlns:xlink="http://www.w3.org/1999/xlink" x="0px" y="0px"
	 viewBox="0 0 25 25" style="enable-background:new 0 0 25 25;" xml:space="preserve">
<style type="text/css">
	.st0{fill:#FFFFFF;}
</style>
<path class="st0" d="M22.14,18.38c1.05-1.72,1.67-3.72,1.67-5.88c0-2.15-0.62-4.16-1.66-5.87c-0.01-0.03-0.01-0.07-0.03-0.1
	c-0.04-0.08-0.1-0.15-0.16-0.21c-2.02-3.08-5.5-5.11-9.45-5.11c-3.95,0-7.44,2.05-9.46,5.13C2.98,6.38,2.93,6.45,2.9,6.52
	C2.88,6.55,2.89,6.58,2.88,6.6C1.82,8.32,1.2,10.34,1.2,12.5c0,2.16,0.62,4.18,1.68,5.9c0.01,0.02,0.01,0.05,0.02,0.07
	c0.03,0.07,0.08,0.13,0.14,0.18c2.02,3.1,5.5,5.15,9.47,5.15c3.99,0,7.49-2.08,9.51-5.21c0.03-0.04,0.08-0.07,0.11-0.12
	C22.13,18.44,22.13,18.41,22.14,18.38z M21.27,17.37c-1.41-0.64-2.84-1.13-4.26-1.48c0.27-1.07,0.44-2.2,0.44-3.39
	c0-1.19-0.17-2.33-0.44-3.4c1.42-0.34,2.84-0.84,4.26-1.48c0.81,1.44,1.27,3.1,1.27,4.87C22.53,14.27,22.07,15.93,21.27,17.37z
	 M9.54,16.9c1.98-0.34,3.93-0.34,5.91,0c-0.88,2.49-2.26,4.45-2.96,5.34C11.8,21.34,10.42,19.39,9.54,16.9z M12.5,2.76
	c0.7,0.89,2.08,2.84,2.96,5.34c-1.98,0.34-3.93,0.34-5.91,0C10.42,5.61,11.8,3.65,12.5,2.76z M8.74,12.5c0-1.1,0.16-2.16,0.42-3.16
	c1.12,0.2,2.24,0.33,3.34,0.33c1.1,0,2.22-0.12,3.34-0.33c0.26,1,0.42,2.06,0.42,3.16c0,1.1-0.16,2.16-0.42,3.15
	c-2.24-0.4-4.44-0.4-6.68,0C8.9,14.66,8.74,13.6,8.74,12.5z M20.55,6.53c-1.3,0.58-2.61,1.02-3.91,1.33
	c-0.79-2.32-1.97-4.19-2.79-5.3C16.58,2.94,18.97,4.41,20.55,6.53z M11.16,2.57c-0.82,1.12-2.01,2.98-2.79,5.3
	c-1.3-0.31-2.61-0.76-3.91-1.34C6.03,4.41,8.42,2.94,11.16,2.57z M3.74,7.62C5.15,8.26,6.58,8.76,7.99,9.1
	c-0.27,1.07-0.44,2.21-0.44,3.4c0,1.19,0.17,2.33,0.44,3.39c-1.42,0.34-2.84,0.84-4.26,1.48c-0.81-1.44-1.27-3.1-1.27-4.87
	C2.47,10.73,2.93,9.07,3.74,7.62z M4.45,18.47c1.3-0.58,2.61-1.02,3.91-1.34c0.79,2.32,1.97,4.19,2.79,5.3
	C8.41,22.06,6.03,20.59,4.45,18.47z M13.85,22.43c0.82-1.12,2.01-2.99,2.79-5.3c1.3,0.31,2.61,0.76,3.91,1.33
	C18.97,20.59,16.59,22.06,13.85,22.43z"/>
</svg>
