<?xml version="1.0" encoding="utf-8"?>
<!-- Generator: Adobe Illustrator 23.1.0, SVG Export Plug-In . SVG Version: 6.00 Build 0)  -->
<svg version="1.1" id="Layer_1" xmlns="http://www.w3.org/2000/svg" xmlns:xlink="http://www.w3.org/1999/xlink" x="0px" y="0px"
	 viewBox="0 0 189.39 30.22" style="enable-background:new 0 0 189.39 30.22;" xml:space="preserve">
<style type="text/css">
	.st0{fill:#034EA2;}
	.st1{fill:#FFFFFF;}
</style>
<g>
	<g>
		<path class="st0" d="M43.27,2.24C18.17,6.62-1.18,15.92,0.06,23.02c1.24,7.11,22.59,9.33,47.7,4.96
			c25.1-4.37,44.45-13.67,43.21-20.78C89.73,0.09,68.38-2.13,43.27,2.24z"/>
		<path class="st0" d="M185.08,11.18h1.85v4.09h2.46V5.06h-2.5v4.03h-1.75c-0.45-2.26-2.48-3.97-4.93-3.97
			c-2.78,0-5.03,2.19-5.03,4.9c0,2.71,2.25,4.9,5.03,4.9C182.58,14.92,184.55,13.33,185.08,11.18z M177.56,10.02
			c0-1.61,1.19-2.91,2.65-2.91s2.65,1.3,2.65,2.91c0,1.61-1.19,2.91-2.65,2.91C178.75,12.93,177.56,11.63,177.56,10.02z"/>
		<polygon class="st0" points="169.76,12.44 172.11,12.44 172.4,5.64 170.65,5.64 170.05,5.64 160.36,5.64 160.36,7.65 169.96,7.65 
					"/>
		<path class="st0" d="M186.94,16.47v2.09h-7.03v-2.09h-2.46v2.09v1.99v1.84v2.07v0.01h2.46v-0.01h7.03v0.01h2.46v-0.01v-2.07v-1.84
			v-1.99v-2.09H186.94z M186.94,22.39h-7.03v-1.84h7.03V22.39z"/>
		<path class="st0" d="M142.42,15h6.14v0.97c-3.01,0.39-5.29,2.24-5.29,4.47c0,2.51,2.89,4.55,6.45,4.55s6.45-2.04,6.45-4.55
			c0-2.25-2.31-4.11-5.35-4.48V15h6.15v-1.94h-14.55V15z M153.72,20.44c0,1.4-1.79,2.55-4.01,2.55c-2.21,0-4.01-1.15-4.01-2.55
			c0-1.4,1.8-2.54,4.01-2.54C151.93,17.9,153.72,19.04,153.72,20.44z"/>
		<polygon class="st0" points="124.38,9.09 122.25,9.09 122.25,5.06 119.74,5.06 119.74,15.27 122.25,15.27 122.25,11.18 
			124.38,11.18 		"/>
		<path class="st0" d="M110.46,24.46h11.79V16.1h-11.79V24.46z M112.87,18.15h6.97v4.27h-6.97V18.15z"/>
		<polygon class="st0" points="136.77,15.27 139.24,15.27 139.24,5.06 136.73,5.06 136.73,9.09 133.57,9.09 133.57,11.18 
			136.77,11.18 		"/>
		<path class="st0" d="M133.06,15.53c-3.62,0-6.54,2.12-6.54,4.73c0,2.62,2.93,4.73,6.54,4.73c3.62,0,6.54-2.11,6.54-4.73
			C139.6,17.65,136.67,15.53,133.06,15.53z M133.06,22.91c-2.24,0-4.06-1.19-4.06-2.65c0-1.46,1.81-2.64,4.06-2.64
			s4.07,1.18,4.07,2.64C137.13,21.72,135.31,22.91,133.06,22.91z"/>
		<path class="st0" d="M112.66,10.5c0.75,2.37,4.02,4.53,4.02,4.53l1.29-1.78c-4.47-2.29-4.14-7.81-4.14-7.81h-2.33
			c0,0,0.33,5.52-4.15,7.81l1.29,1.78C108.64,15.03,111.92,12.87,112.66,10.5z"/>
		<path class="st0" d="M129.34,10.49c0.74,2.37,3.74,4.35,3.74,4.35l1.29-1.78c-4.2-2.1-3.88-7.62-3.88-7.62h-2.31
			c0,0,0.32,5.52-3.87,7.62l1.29,1.78C125.6,14.84,128.6,12.86,129.34,10.49z"/>
		<path class="st0" d="M143.13,10.51l0.45,1.94c0,0,5.15-0.89,6.12-3.22c0.96,2.33,6.11,3.22,6.11,3.22l0.45-1.94
			c-4.47-0.68-5.04-2.79-5.04-2.79h4.97V5.7h-12.98v2.02h4.97C148.18,7.72,147.61,9.83,143.13,10.51z"/>
		<polygon class="st0" points="166.54,9.09 164.27,9.09 164.27,13.06 159.39,13.06 159.39,15 173.37,15 173.37,13.06 166.54,13.06 
					"/>
		<path class="st0" d="M166.39,15.89c-3.57,0-6.45,2.04-6.45,4.55s2.88,4.55,6.45,4.55s6.45-2.04,6.45-4.55
			S169.95,15.89,166.39,15.89z M166.39,22.99c-2.21,0-4.01-1.15-4.01-2.55c0-1.4,1.8-2.54,4.01-2.54c2.22,0,4.01,1.14,4.01,2.54
			C170.4,21.84,168.61,22.99,166.39,22.99z"/>
	</g>
	<g>
		<g>
			<polygon class="st1" points="67.34,17.74 67.21,10.36 69.54,10.36 69.54,19.67 66.19,19.67 63.87,12.03 63.82,12.03 63.94,19.67 
				61.63,19.67 61.63,10.36 65.12,10.36 67.29,17.74 			"/>
			<polygon class="st1" points="24.99,11.23 23.7,19.77 21.16,19.77 22.9,10.36 27.09,10.36 28.82,19.77 26.29,19.77 25.04,11.23 
							"/>
			<polygon class="st1" points="35.96,17.55 37.12,10.36 40.96,10.36 41.17,19.77 38.81,19.77 38.75,11.31 38.7,11.31 37.13,19.77 
				34.74,19.77 33.17,11.31 33.12,11.31 33.06,19.77 30.7,19.77 30.91,10.36 34.75,10.36 35.91,17.55 			"/>
			<path class="st1" d="M17.19,17.11c0.09,0.23,0.06,0.52,0.02,0.7c-0.08,0.31-0.29,0.63-0.92,0.63c-0.59,0-0.95-0.34-0.95-0.86
				v-0.91h-2.52v0.73c0,2.1,1.65,2.73,3.42,2.73c1.7,0,3.1-0.58,3.33-2.15c0.11-0.81,0.03-1.34-0.01-1.55
				c-0.4-1.97-3.97-2.56-4.24-3.66c-0.05-0.19-0.03-0.39-0.01-0.5c0.07-0.3,0.27-0.63,0.86-0.63c0.55,0,0.88,0.34,0.88,0.85
				c0,0.17,0,0.58,0,0.58h2.35v-0.66c0-2.05-1.84-2.37-3.17-2.37c-1.67,0-3.04,0.55-3.29,2.08c-0.07,0.42-0.08,0.8,0.02,1.27
				C13.37,15.34,16.71,15.89,17.19,17.11z"/>
			<path class="st1" d="M47.8,17.1c0.09,0.23,0.06,0.51,0.02,0.69c-0.08,0.31-0.29,0.63-0.91,0.63c-0.58,0-0.94-0.34-0.94-0.84v-0.9
				h-2.5v0.72c0,2.08,1.64,2.7,3.39,2.7c1.68,0,3.07-0.57,3.29-2.13c0.11-0.81,0.03-1.33-0.01-1.53c-0.39-1.95-3.93-2.53-4.19-3.62
				c-0.04-0.19-0.03-0.39-0.01-0.49c0.07-0.3,0.27-0.63,0.85-0.63c0.55,0,0.86,0.33,0.86,0.84c0,0.17,0,0.58,0,0.58h2.33v-0.65
				c0-2.03-1.83-2.35-3.14-2.35c-1.66,0-3.01,0.55-3.26,2.07c-0.07,0.42-0.08,0.79,0.02,1.26C44.01,15.34,47.32,15.89,47.8,17.1z"/>
			<path class="st1" d="M55.7,18.36c0.65,0,0.86-0.45,0.9-0.68c0.02-0.1,0.02-0.24,0.02-0.36v-6.96H59v6.75
				c0,0.17-0.01,0.53-0.02,0.62c-0.17,1.76-1.56,2.33-3.29,2.33s-3.12-0.57-3.29-2.33c-0.01-0.09-0.03-0.45-0.02-0.62v-6.75h2.38
				v6.96c0,0.12,0,0.26,0.02,0.36C54.85,17.91,55.04,18.36,55.7,18.36z"/>
			<path class="st1" d="M75.33,18.26c0.68,0,0.92-0.43,0.96-0.68c0.02-0.11,0.02-0.24,0.02-0.36v-1.37h-0.97v-1.37h3.34v2.53
				c0,0.18-0.01,0.31-0.03,0.62c-0.16,1.71-1.64,2.32-3.31,2.32s-3.15-0.61-3.31-2.32C72,17.31,72,17.18,72,17.01v-3.96
				c0-0.17,0.02-0.46,0.04-0.62c0.21-1.76,1.63-2.33,3.31-2.33c1.67,0,3.13,0.56,3.3,2.33c0.03,0.3,0.02,0.62,0.02,0.62v0.31H76.3
				v-0.53c0,0,0-0.22-0.03-0.36c-0.04-0.21-0.22-0.69-0.94-0.69c-0.69,0-0.89,0.45-0.94,0.69c-0.03,0.12-0.04,0.29-0.04,0.44v4.3
				c0,0.12,0,0.25,0.02,0.36C74.41,17.83,74.65,18.26,75.33,18.26z"/>
		</g>
	</g>
</g>
</svg>
