<?xml version="1.0" encoding="utf-8"?>
<!-- Generator: Adobe Illustrator 23.1.0, SVG Export Plug-In . SVG Version: 6.00 Build 0)  -->
<svg version="1.1" id="Layer_1" xmlns="http://www.w3.org/2000/svg" xmlns:xlink="http://www.w3.org/1999/xlink" x="0px" y="0px"
	 viewBox="0 0 189.39 30.22" style="enable-background:new 0 0 189.39 30.22;" xml:space="preserve">
<style type="text/css">
	.st0{fill:#FFFFFF;}
</style>
<g>
	<path class="st0" d="M43.27,2.24C32.3,4.15,22.43,7.01,14.89,10.21c0.41-0.1,0.86-0.15,1.33-0.15c1.33,0,3.17,0.32,3.17,2.37v0.66
		h-2.35c0,0,0-0.41,0-0.58c0-0.51-0.33-0.85-0.88-0.85c-0.59,0-0.79,0.33-0.86,0.63c-0.02,0.11-0.04,0.31,0.01,0.5
		c0.27,1.1,3.84,1.69,4.24,3.66c0.04,0.2,0.12,0.73,0.01,1.55c-0.22,1.57-1.63,2.15-3.33,2.15c-1.77,0-3.42-0.63-3.42-2.73l0-0.73
		h2.52v0.91c0,0.52,0.36,0.86,0.95,0.86c0.63,0,0.84-0.32,0.92-0.63c0.04-0.18,0.07-0.47-0.02-0.7c-0.48-1.22-3.83-1.77-4.24-3.7
		c-0.1-0.47-0.09-0.85-0.02-1.27c0.11-0.67,0.44-1.15,0.91-1.48C4.78,14.67-0.61,19.17,0.06,23.03c1.24,7.11,22.59,9.33,47.7,4.96
		c11.21-1.95,21.27-4.89,28.86-8.18c-0.4,0.1-0.83,0.15-1.27,0.15c-1.67,0-3.15-0.61-3.31-2.32C72,17.31,72,17.18,72,17.01l0-3.96
		c0-0.17,0.02-0.46,0.04-0.62c0.21-1.76,1.63-2.33,3.31-2.33c1.67,0,3.13,0.56,3.3,2.33c0.03,0.3,0.02,0.62,0.02,0.62v0.31h-2.37
		v-0.53c0,0,0-0.22-0.03-0.36c-0.04-0.21-0.22-0.69-0.94-0.69c-0.69,0-0.89,0.45-0.94,0.69c-0.03,0.12-0.04,0.29-0.04,0.44v4.3
		c0,0.12,0,0.25,0.02,0.36c0.04,0.25,0.28,0.68,0.96,0.68c0.68,0,0.92-0.43,0.96-0.68c0.02-0.11,0.02-0.24,0.02-0.36v-1.37h-0.97
		v-1.37h3.34v2.53c0,0.18-0.01,0.31-0.03,0.62c-0.07,0.79-0.44,1.34-0.97,1.71c8.77-3.95,13.94-8.36,13.28-12.14
		C89.73,0.09,68.38-2.13,43.27,2.24z M26.29,19.77l-1.25-8.54h-0.05l-1.29,8.54h-2.54l1.75-9.41h4.19l1.74,9.41H26.29z M38.82,19.77
		l-0.06-8.46H38.7l-1.57,8.46h-2.39l-1.57-8.46h-0.05l-0.06,8.46H30.7l0.21-9.41h3.84l1.16,7.19h0.05l1.16-7.19h3.84l0.2,9.41H38.82
		z M50.15,17.96c-0.22,1.55-1.61,2.13-3.29,2.13c-1.75,0-3.39-0.63-3.39-2.7l0-0.72h2.5l0,0.9c0,0.5,0.35,0.84,0.94,0.84
		c0.62,0,0.83-0.31,0.91-0.63c0.04-0.18,0.07-0.46-0.02-0.69c-0.48-1.21-3.79-1.76-4.19-3.66c-0.1-0.47-0.09-0.84-0.02-1.26
		c0.25-1.52,1.6-2.07,3.26-2.07c1.32,0,3.14,0.32,3.14,2.35v0.65h-2.33c0,0,0-0.4,0-0.58c0-0.51-0.32-0.84-0.86-0.84
		c-0.58,0-0.78,0.32-0.85,0.63c-0.02,0.1-0.04,0.3,0.01,0.49c0.26,1.09,3.8,1.67,4.19,3.63C50.18,16.63,50.26,17.15,50.15,17.96z
		 M58.99,17.72c-0.17,1.76-1.56,2.33-3.29,2.33c-1.73,0-3.12-0.57-3.29-2.33c-0.01-0.09-0.03-0.45-0.02-0.62v-6.75h2.38v6.96
		c0,0.12,0,0.26,0.02,0.36c0.05,0.23,0.25,0.68,0.91,0.68c0.65,0,0.86-0.45,0.9-0.68c0.02-0.1,0.02-0.24,0.02-0.36v-6.96h2.38v6.75
		C59.01,17.28,58.99,17.63,58.99,17.72z M69.54,19.67h-3.35l-2.33-7.64h-0.05l0.13,7.64h-2.31v-9.31h3.49l2.16,7.39h0.05l-0.13-7.39
		h2.33V19.67z"/>
	<polygon class="st0" points="169.76,12.44 172.11,12.44 172.4,5.64 170.65,5.64 170.05,5.64 160.36,5.64 160.36,7.66 169.97,7.66 	
		"/>
	<path class="st0" d="M186.94,18.56h-7.03v-2.09h-2.46v2.09v1.99v1.85v2.07h2.46h7.03h2.46v-2.07v-1.85v-1.99v-2.09h-2.46V18.56z
		 M186.94,22.39h-7.03v-1.85h7.03V22.39z"/>
	<path class="st0" d="M186.89,5.06v4.03h-1.75c-0.45-2.26-2.48-3.97-4.93-3.97c-2.78,0-5.03,2.19-5.03,4.9c0,2.71,2.25,4.9,5.03,4.9
		c2.36,0,4.33-1.59,4.87-3.73h1.85v4.08h2.46V5.06H186.89z M180.21,12.93c-1.46,0-2.65-1.3-2.65-2.91c0-1.61,1.19-2.91,2.65-2.91
		c1.46,0,2.65,1.3,2.65,2.91C182.86,11.63,181.67,12.93,180.21,12.93z"/>
	<path class="st0" d="M142.42,15h6.14v0.97c-3.01,0.39-5.29,2.24-5.29,4.47c0,2.51,2.88,4.55,6.45,4.55c3.56,0,6.45-2.04,6.45-4.55
		c0-2.24-2.31-4.1-5.34-4.47V15h6.15v-1.94h-14.55V15z M153.72,20.44c0,1.4-1.79,2.55-4.01,2.55c-2.21,0-4.01-1.14-4.01-2.55
		c0-1.4,1.8-2.54,4.01-2.54C151.93,17.9,153.72,19.04,153.72,20.44z"/>
	<polygon class="st0" points="124.38,9.09 122.25,9.09 122.25,5.06 119.74,5.06 119.74,15.27 122.25,15.27 122.25,11.18 
		124.38,11.18 	"/>
	<path class="st0" d="M110.46,24.46h11.79v-8.36h-11.79V24.46z M112.87,18.15h6.97v4.27h-6.97V18.15z"/>
	<polygon class="st0" points="136.77,15.27 139.24,15.27 139.24,5.06 136.73,5.06 136.73,9.09 133.57,9.09 133.57,11.18 
		136.77,11.18 	"/>
	<path class="st0" d="M133.06,15.54c-3.61,0-6.54,2.12-6.54,4.73c0,2.62,2.92,4.73,6.54,4.73c3.61,0,6.54-2.11,6.54-4.73
		C139.6,17.65,136.68,15.54,133.06,15.54z M133.06,22.91c-2.25,0-4.06-1.19-4.06-2.65c0-1.46,1.82-2.64,4.06-2.64
		c2.25,0,4.07,1.18,4.07,2.64C137.13,21.72,135.31,22.91,133.06,22.91z"/>
	<path class="st0" d="M112.66,10.49c0.74,2.37,4.02,4.53,4.02,4.53l1.29-1.78c-4.47-2.29-4.14-7.81-4.14-7.81h-2.32
		c0,0,0.33,5.52-4.15,7.81l1.29,1.78C108.64,15.02,111.92,12.86,112.66,10.49z"/>
	<path class="st0" d="M129.34,10.49c0.74,2.37,3.74,4.35,3.74,4.35l1.29-1.78c-4.2-2.1-3.88-7.62-3.88-7.62h-2.31
		c0,0,0.33,5.52-3.87,7.62l1.29,1.78C125.6,14.84,128.6,12.86,129.34,10.49z"/>
	<path class="st0" d="M143.14,10.51l0.45,1.94c0,0,5.15-0.89,6.12-3.22c0.96,2.33,6.11,3.22,6.11,3.22l0.45-1.94
		c-4.47-0.68-5.04-2.79-5.04-2.79h4.97V5.7h-12.98v2.02h4.97C148.19,7.72,147.62,9.83,143.14,10.51z"/>
	<polygon class="st0" points="166.54,9.09 164.27,9.09 164.27,13.06 159.39,13.06 159.39,15 173.36,15 173.36,13.06 166.54,13.06 	
		"/>
	<path class="st0" d="M166.39,15.89c-3.57,0-6.45,2.04-6.45,4.55c0,2.51,2.88,4.55,6.45,4.55c3.56,0,6.45-2.04,6.45-4.55
		C172.84,17.93,169.96,15.89,166.39,15.89z M166.39,22.99c-2.21,0-4.01-1.14-4.01-2.55c0-1.4,1.8-2.54,4.01-2.54
		c2.22,0,4.01,1.14,4.01,2.54C170.4,21.84,168.61,22.99,166.39,22.99z"/>
</g>
</svg>
