<?xml version="1.0" encoding="utf-8"?>
<!-- Generator: Adobe Illustrator 23.1.0, SVG Export Plug-In . SVG Version: 6.00 Build 0)  -->
<svg version="1.1" id="Layer_1" xmlns="http://www.w3.org/2000/svg" xmlns:xlink="http://www.w3.org/1999/xlink" x="0px" y="0px"
	 viewBox="0 0 30 30" style="enable-background:new 0 0 30 30;" xml:space="preserve">
<style type="text/css">
	.st0{fill:#FFFFFF;stroke:#FFFFFF;stroke-width:2;stroke-linecap:round;stroke-linejoin:round;stroke-miterlimit:10;}
	.st1{fill:none;stroke:#FFFFFF;stroke-width:2;stroke-linecap:round;stroke-linejoin:round;stroke-miterlimit:10;}
	.st2{fill:#0E509E;}
	.st3{fill:none;stroke:#0E509E;stroke-width:2;stroke-linecap:round;stroke-linejoin:round;stroke-miterlimit:10;}
</style>
<g>
	<path class="st0" d="M-39.45,16.86c-0.71,0.72-2.47,1.36-3.14,0.69c-0.68-0.67-0.03-2.42,0.68-3.13L-39.45,16.86z"/>
	<path class="st1" d="M-29.97,7.8c0,0.43-0.15,0.81-0.43,1.1l-9.05,7.96l-2.46-2.45l8.01-9c0.71-0.71,2.08-0.5,3.04,0.45
		C-30.28,6.44-29.97,7.16-29.97,7.8z"/>
	<line class="st1" x1="-49.5" y1="13.58" x2="-45.57" y2="13.58"/>
	<line class="st1" x1="-49.5" y1="17.49" x2="-45.57" y2="17.49"/>
	<path class="st1" d="M-34.04,17.83v2.49c0,1.53-1.25,2.77-2.79,2.77h-11.72c-0.15,1.07-1.08,1.9-2.21,1.9c-1.22,0-2.22-1-2.22-2.21
		v-2.46v-4v4v-4v-5.84c0-1.52,1.25-2.76,2.79-2.76h9.05"/>
</g>
<g>
	<path class="st2" d="M23.61,5H6.39C3.43,5,1,7.48,1,10.5v9C1,22.52,3.43,25,6.39,25h17.22c2.96,0,5.39-2.48,5.39-5.5v-9
		C29,7.48,26.57,5,23.61,5z M12.22,19.11v-8.22L19.2,15L12.22,19.11z"/>
</g>
<g>
	<path class="st3" d="M111.73,15.48h-11.62c-2.31,0-4.19-1.89-4.19-4.19V-0.32c0-2.31,1.89-4.19,4.19-4.19h11.62
		c2.31,0,4.19,1.89,4.19,4.19v11.62C115.92,13.6,114.03,15.48,111.73,15.48z"/>
	<ellipse class="st3" cx="105.92" cy="5.48" rx="4.8" ry="4.82"/>
	<ellipse class="st2" cx="111.74" cy="-0.36" rx="1.02" ry="1.02"/>
</g>
</svg>
